<?xml version="1.0" encoding="utf-8"?>
<svg version="1.1" id="s" xmlns="http://www.w3.org/2000/svg" xmlns:xlink="http://www.w3.org/1999/xlink" x="0px" y="0px"
	 viewBox="0 0 30.6 30.6" style="enable-background:new 0 0 30.6 30.6;" xml:space="preserve">
<style type="text/css">
	.st0{fill:#CCCCCC;}
</style>
<path class="st0" d="M28.7,3.2c-1.9-1.9-4.9-3.4-8.3,0L6.5,17.1c-0.1,0.1-1.4,1.3-1.4,3c0,1.1,0.4,2.1,1.3,3
	c0.8,0.8,1.7,1.2,2.7,1.2c1.8,0,3.1-1.3,3.2-1.5l10.5-10.5c0.4-0.4,0.4-1,0-1.4c-0.4-0.4-1-0.4-1.4,0L10.8,21.4
	c-0.2,0.3-1,0.9-1.8,0.9c-0.4,0-0.8-0.2-1.2-0.6c-0.5-0.5-0.7-1-0.7-1.5c0-0.9,0.8-1.6,0.8-1.7L21.8,4.6c1.4-1.4,3.1-2.4,5.5,0
	c0.9,0.9,1.3,1.8,1.3,2.7c0,1.5-1.3,2.7-1.3,2.7L11.7,25.4c0,0-2,2-4.3,2c-1.2,0-2.4-0.5-3.5-1.6c-4.1-4.1-0.3-8.2-0.1-8.3l12-12
	c0.4-0.4,0.4-1,0-1.4c-0.4-0.4-1-0.4-1.4,0l-12,12c-1.9,2-4.2,6.8,0.1,11.1c1.5,1.5,3.1,2.2,4.9,2.2c3.2,0,5.6-2.5,5.7-2.6
	l15.6-15.4c0,0,1.8-1.7,1.9-4.1C30.6,5.9,30,4.5,28.7,3.2z"/>
</svg>
